<?xml version="1.0" encoding="UTF-8" standalone="no"?>
<!-- Created with Inkscape (http://www.inkscape.org/) -->

<svg
   width="57.679165mm"
   height="57.679165mm"
   viewBox="0 0 57.679165 57.679165"
   version="1.1"
   id="svg16462"
   xmlns="http://www.w3.org/2000/svg"
   xmlns:svg="http://www.w3.org/2000/svg">
  <defs
     id="defs16459" />
  <g
     id="layer1"
     transform="translate(-62.146133,-91.374702)">
    <g
       id="g16478">
      <path
         style="fill:#d9d7d2;stroke-width:0.264583"
         d="m 75.904466,119.9497 v -14.81667 h 3.96875 3.96875 v 1.90389 1.90388 l 0.773219,-1.21924 c 1.113745,-1.75619 2.74848,-2.63931 5.173733,-2.79495 2.370068,-0.1521 4.110675,0.36714 5.651269,1.68583 2.953592,2.52816 4.06358,9.19719 2.414662,14.50775 -0.473633,1.52539 -0.81924,2.08055 -2.06533,3.31764 -1.725194,1.71271 -2.910122,2.17315 -5.592648,2.17315 -2.671438,0 -4.550569,-0.99098 -5.858275,-3.0894 -0.491927,-0.78938 -0.494658,-0.7606 -0.495641,5.22552 l -9.89e-4,6.01927 h -3.96875 -3.96875 z m 13.040397,-0.003 c 1.646912,-1.29546 2.052605,-5.53573 0.716237,-7.48603 -1.025252,-1.49626 -2.441455,-1.899 -3.944512,-1.12174 -2.261039,1.16923 -2.503676,6.92387 -0.362936,8.60777 0.90553,0.71229 2.685681,0.71229 3.591211,0 z m 14.744187,6.28011 c -2.78265,-1.47151 -2.82808,-5.27099 -0.0822,-6.87466 1.77976,-1.03944 4.0771,-0.43333 5.32706,1.40545 0.50109,0.73714 0.59919,1.16862 0.51226,2.2531 -0.13019,1.62409 -0.76661,2.57182 -2.20596,3.285 -1.38637,0.68694 -2.14986,0.67212 -3.55115,-0.0689 z"
         id="path16482" />
      <path
         style="fill:#1f2224;stroke-width:0.264583"
         d="M 62.146133,120.21428 V 91.374702 H 90.985715 119.8253 v 28.839578 28.83959 H 90.985715 62.146133 Z m 21.696822,8.53282 c 9.79e-4,-5.98612 0.0037,-6.0149 0.495641,-5.22552 1.307706,2.09842 3.186837,3.0894 5.858275,3.0894 2.682526,0 3.867454,-0.46044 5.592648,-2.17315 1.24609,-1.23709 1.591697,-1.79225 2.06533,-3.31764 1.648918,-5.31056 0.53893,-11.97959 -2.414662,-14.50775 -1.540594,-1.31869 -3.281201,-1.83793 -5.651269,-1.68583 -2.425253,0.15564 -4.059988,1.03876 -5.173733,2.79495 l -0.773219,1.21924 v -1.90388 -1.90389 h -3.96875 -3.96875 v 14.81667 14.81667 h 3.96875 3.96875 l 9.79e-4,-6.01927 z m 1.510697,-8.80024 c -2.14074,-1.68391 -1.898103,-7.43854 0.362936,-8.60777 1.503057,-0.77726 2.91926,-0.37453 3.944512,1.12173 1.336368,1.9503 0.930675,6.19058 -0.716237,7.48604 -0.90553,0.71229 -2.685681,0.71229 -3.591211,0 z m 21.886548,6.349 c 1.43935,-0.71319 2.07577,-1.66091 2.20596,-3.28501 0.32525,-4.05744 -4.9664,-5.7146 -7.2809,-2.28011 -1.23566,1.83359 -0.51983,4.41553 1.52379,5.49622 1.40129,0.74102 2.16478,0.75583 3.55115,0.0689 z"
         id="path16480" />
    </g>
  </g>
</svg>
